<?xml version="1.0" standalone="no"?>
<!DOCTYPE svg PUBLIC "-//W3C//DTD SVG 20010904//EN"
 "http://www.w3.org/TR/2001/REC-SVG-20010904/DTD/svg10.dtd">
<svg version="1.0" xmlns="http://www.w3.org/2000/svg"
 width="241.000000pt" height="76.000000pt" viewBox="0 0 241.000000 76.000000"
 preserveAspectRatio="xMidYMid meet">

<g transform="translate(0.000000,76.000000) scale(0.100000,-0.100000)"
fill="#000000" stroke="none">
<path d="M355 396 c-59 -81 -62 -86 -42 -86 7 0 31 25 54 56 l41 55 31 -38
c17 -21 31 -41 31 -45 0 -5 -15 -8 -34 -8 -19 0 -38 -4 -41 -10 -4 -6 23 -10
74 -10 45 0 81 3 81 6 0 3 -23 39 -52 80 -32 46 -59 74 -70 74 -11 0 -40 -30
-73 -74z"/>
<path d="M594 433 c3 -21 6 -57 6 -80 0 -32 4 -43 15 -43 12 0 15 16 15 80 0
75 -1 80 -21 80 -19 0 -21 -4 -15 -37z"/>
<path d="M685 460 c3 -5 31 -10 61 -10 50 0 84 -14 84 -34 0 -3 -25 -6 -55 -6
-65 0 -95 -22 -95 -70 l0 -30 84 0 c47 0 88 4 91 10 4 6 -17 10 -55 10 -65 0
-97 17 -86 45 4 11 22 15 63 15 68 0 106 20 101 53 -3 21 -9 22 -101 25 -66 2
-97 -1 -92 -8z"/>
<path d="M942 463 c-7 -2 -17 -14 -23 -25 -18 -34 5 -48 83 -48 71 0 98 -12
98 -44 0 -13 -13 -16 -74 -16 -41 0 -78 -4 -81 -10 -9 -15 125 -12 155 3 28
14 40 64 18 78 -7 5 -39 9 -71 9 -52 0 -87 14 -87 34 0 3 31 6 69 6 39 0 73 5
76 10 6 10 -138 13 -163 3z"/>
<path d="M1185 460 c-3 -5 -1 -10 5 -10 26 0 40 -30 40 -84 0 -49 2 -56 20
-56 18 0 20 7 20 70 l0 70 29 0 c17 0 33 5 36 10 4 6 -21 10 -69 10 -41 0 -78
-4 -81 -10z"/>
<path d="M1385 396 c-59 -81 -62 -86 -42 -86 7 0 31 25 54 56 l41 55 31 -38
c17 -21 31 -41 31 -45 0 -5 -15 -8 -34 -8 -19 0 -38 -4 -41 -10 -4 -6 23 -10
74 -10 45 0 81 3 81 6 0 3 -23 39 -52 80 -32 46 -59 74 -70 74 -11 0 -40 -30
-73 -74z"/>
<path d="M1575 460 c-3 -5 -1 -10 5 -10 26 0 40 -30 40 -84 0 -49 2 -56 20
-56 18 0 20 7 20 70 l0 70 29 0 c17 0 33 5 36 10 4 6 -21 10 -69 10 -41 0 -78
-4 -81 -10z"/>
<path d="M1784 433 c3 -21 6 -57 6 -80 0 -32 4 -43 15 -43 12 0 15 16 15 80 0
75 -1 80 -21 80 -19 0 -21 -4 -15 -37z"/>
<path d="M1910 457 c-58 -29 -64 -107 -10 -134 30 -15 136 -17 145 -3 4 6 -14
10 -48 10 -43 0 -58 5 -75 23 -28 29 -29 73 -3 87 11 5 42 10 70 10 27 0 53 5
56 10 9 15 -105 12 -135 -3z"/>
<path d="M364 328 l-19 -23 23 19 c21 18 27 26 19 26 -2 0 -12 -10 -23 -22z"/>
<path d="M1394 328 l-19 -23 23 19 c21 18 27 26 19 26 -2 0 -12 -10 -23 -22z"/>
<path d="M2127 333 c-12 -12 -7 -22 8 -17 8 4 15 10 15 15 0 11 -14 12 -23 2z"/>
</g>
</svg>
